<?xml version="1.0" encoding="UTF-8"?>
<svg id="Layer_2" xmlns="http://www.w3.org/2000/svg" viewBox="0 0 88.23 39.21" shape-rendering="crispEdges">
  <defs>
    <style>
      .cls-1 {
        fill: #63170f;
      }

      .cls-2 {
        fill: #fecd79;
      }

      .cls-3 {
        fill: #de8627;
      }

      .cls-4 {
        fill: #be2c1a;
      }
    </style>
  </defs>
  <g id="All_Assets">
    <g id="Snake_Assets">
      <g id="Body_Horizontal">
        <rect class="cls-1" y="29.41" width="9.8" height="9.8"/>
        <rect class="cls-1" x="9.8" y="29.41" width="9.81" height="9.8"/>
        <rect class="cls-1" x="19.61" y="29.41" width="9.8" height="9.8"/>
        <rect class="cls-1" x="29.41" y="29.41" width="9.8" height="9.8"/>
        <rect class="cls-1" x="39.21" y="29.41" width="9.81" height="9.8"/>
        <rect class="cls-1" x="49.02" y="29.41" width="9.8" height="9.8"/>
        <rect class="cls-1" x="58.82" y="29.41" width="9.81" height="9.8"/>
        <rect class="cls-1" x="68.63" y="29.41" width="9.8" height="9.8"/>
        <rect class="cls-1" x="78.43" y="29.41" width="9.8" height="9.8"/>
        <rect class="cls-3" y="19.61" width="9.8" height="9.8"/>
        <rect class="cls-3" x="9.8" y="19.61" width="9.81" height="9.8"/>
        <rect class="cls-3" x="19.61" y="19.61" width="9.8" height="9.8"/>
        <rect class="cls-3" x="29.41" y="19.61" width="9.8" height="9.8"/>
        <rect class="cls-3" x="39.21" y="19.61" width="9.81" height="9.8"/>
        <rect class="cls-3" x="49.02" y="19.61" width="9.8" height="9.8"/>
        <rect class="cls-3" x="58.82" y="19.61" width="9.81" height="9.8"/>
        <rect class="cls-3" x="68.63" y="19.61" width="9.8" height="9.8"/>
        <rect class="cls-3" x="78.43" y="19.61" width="9.8" height="9.8"/>
        <rect class="cls-2" y="9.8" width="9.8" height="9.81"/>
        <rect class="cls-2" x="9.8" y="9.8" width="9.81" height="9.81"/>
        <rect class="cls-2" x="19.61" y="9.8" width="9.8" height="9.81"/>
        <rect class="cls-2" x="29.41" y="9.8" width="9.8" height="9.81"/>
        <rect class="cls-2" x="39.21" y="9.8" width="9.81" height="9.81"/>
        <rect class="cls-2" x="49.02" y="9.8" width="9.8" height="9.81"/>
        <rect class="cls-2" x="58.82" y="9.8" width="9.81" height="9.81"/>
        <rect class="cls-2" x="68.63" y="9.8" width="9.8" height="9.81"/>
        <rect class="cls-2" x="78.43" y="9.8" width="9.8" height="9.81"/>
        <rect class="cls-4" width="9.8" height="9.8"/>
        <rect class="cls-4" x="9.8" width="9.81" height="9.8"/>
        <rect class="cls-4" x="19.61" width="9.8" height="9.8"/>
        <rect class="cls-4" x="29.41" width="9.8" height="9.8"/>
        <rect class="cls-4" x="39.21" width="9.81" height="9.8"/>
        <rect class="cls-4" x="49.02" width="9.8" height="9.8"/>
        <rect class="cls-4" x="58.82" width="9.81" height="9.8"/>
        <rect class="cls-4" x="68.63" width="9.8" height="9.8"/>
        <rect class="cls-4" x="78.43" width="9.8" height="9.8"/>
      </g>
    </g>
  </g>
</svg>