<?xml version="1.0" encoding="UTF-8"?>
<svg id="Layer_2" xmlns="http://www.w3.org/2000/svg" viewBox="0 0 68.63 68.63" shape-rendering="crispEdges">
  <defs>
    <style>
      .cls-1 {
        fill: #63170f;
      }

      .cls-2 {
        fill: #fecd79;
      }

      .cls-3 {
        fill: #f5a62f;
      }

      .cls-4 {
        fill: #be2c1a;
      }
    </style>
  </defs>
  <g id="All_Assets">
    <g id="Snake_Assets">
      <g id="Bottom_Right">
        <g>
          <rect class="cls-4" x="58.82" y="0" width="9.81" height="9.81"/>
          <rect class="cls-2" x="49.02" y="0" width="9.8" height="9.81"/>
          <rect class="cls-2" x="49.02" y="9.81" width="9.8" height="9.8"/>
          <rect class="cls-2" x="39.21" y="19.61" width="9.81" height="9.8"/>
          <rect class="cls-2" x="49.02" y="19.61" width="9.8" height="9.8"/>
          <rect class="cls-2" x="29.41" y="29.41" width="9.8" height="9.81"/>
          <rect class="cls-2" x="39.21" y="29.41" width="9.81" height="9.81"/>
          <rect class="cls-4" x="49.02" y="29.41" width="9.8" height="9.81"/>
          <rect class="cls-2" x="19.61" y="39.22" width="9.8" height="9.8"/>
          <rect class="cls-2" x="29.41" y="39.22" width="9.8" height="9.8"/>
          <rect class="cls-4" x="39.21" y="39.22" width="9.81" height="9.8"/>
          <rect class="cls-4" x="58.82" y="9.81" width="9.81" height="9.8"/>
          <rect class="cls-4" x="58.82" y="19.61" width="9.81" height="9.8"/>
          <rect class="cls-4" x="19.61" y="58.83" width="9.8" height="9.8"/>
          <rect class="cls-4" x="9.8" y="58.83" width="9.81" height="9.8"/>
          <rect class="cls-4" x="0" y="58.83" width="9.8" height="9.8"/>
          <rect class="cls-4" x="29.41" y="49.02" width="9.8" height="9.81"/>
          <rect class="cls-2" x="19.61" y="49.02" width="9.8" height="9.81"/>
          <rect class="cls-2" x="9.8" y="49.02" width="9.81" height="9.81"/>
          <rect class="cls-2" x="0" y="49.02" width="9.8" height="9.81"/>
          <rect class="cls-3" x="39.21" y="0" width="9.81" height="9.81"/>
          <rect class="cls-3" x="39.21" y="9.81" width="9.81" height="9.8"/>
          <rect class="cls-3" x="29.41" y="9.81" width="9.8" height="9.8"/>
          <rect class="cls-3" x="29.41" y="19.61" width="9.8" height="9.8"/>
          <rect class="cls-3" x="19.61" y="19.61" width="9.8" height="9.8"/>
          <rect class="cls-3" x="19.61" y="29.41" width="9.8" height="9.81"/>
          <rect class="cls-3" x="9.8" y="29.41" width="9.81" height="9.81"/>
          <rect class="cls-3" x="9.8" y="39.22" width="9.81" height="9.8"/>
          <rect class="cls-3" x="0" y="39.22" width="9.8" height="9.8"/>
          <rect class="cls-1" x="29.41" y="0" width="9.8" height="9.81"/>
          <rect class="cls-1" x="19.61" y="9.81" width="9.8" height="9.8"/>
          <rect class="cls-1" x="9.8" y="19.61" width="9.81" height="9.8"/>
          <rect class="cls-1" x="0" y="29.41" width="9.8" height="9.81"/>
        </g>
      </g>
    </g>
  </g>
</svg>