<?xml version="1.0" encoding="UTF-8"?>
<svg id="Layer_2" xmlns="http://www.w3.org/2000/svg" viewBox="0 0 78.43 117.65" shape-rendering="crispEdges">
  <defs>
    <style>
      .cls-1 {
        fill: #63170f;
      }

      .cls-2 {
        fill: #fecd79;
      }

      .cls-3 {
        fill: #f9f8f3;
      }

      .cls-4 {
        fill: #070e19;
      }

      .cls-5 {
        fill: #f5a62f;
      }

      .cls-6 {
        fill: #be2c1a;
      }
    </style>
  </defs>
  <g id="All_Assets">
    <g id="Snake_Assets">
      <g id="Head_Down">
        <rect class="cls-6" x="68.63" y="58.83" width="9.8" height="9.8"/>
        <rect class="cls-6" x="68.63" y="49.02" width="9.8" height="9.81"/>
        <rect class="cls-6" x="68.63" y="39.22" width="9.8" height="9.8"/>
        <rect class="cls-6" x="68.63" y="29.42" width="9.8" height="9.8"/>
        <rect class="cls-6" x="58.83" y="68.63" width="9.8" height="9.8"/>
        <rect class="cls-2" x="58.83" y="58.83" width="9.8" height="9.8"/>
        <rect class="cls-2" x="58.83" y="49.02" width="9.8" height="9.81"/>
        <rect class="cls-2" x="58.83" y="39.22" width="9.8" height="9.8"/>
        <rect class="cls-2" x="58.83" y="29.42" width="9.8" height="9.8"/>
        <rect class="cls-6" x="58.83" y="19.61" width="9.8" height="9.81"/>
        <rect class="cls-6" x="49.02" y="78.43" width="9.81" height="9.81"/>
        <rect class="cls-2" x="49.02" y="68.63" width="9.81" height="9.8"/>
        <rect class="cls-3" x="49.02" y="58.83" width="9.81" height="9.8"/>
        <rect class="cls-4" x="49.02" y="49.02" width="9.81" height="9.81"/>
        <rect class="cls-2" x="49.02" y="39.22" width="9.81" height="9.8"/>
        <rect class="cls-2" x="49.02" y="29.42" width="9.81" height="9.8"/>
        <rect class="cls-2" x="49.02" y="19.61" width="9.81" height="9.81"/>
        <rect class="cls-6" x="49.02" y="9.81" width="9.81" height="9.8"/>
        <rect class="cls-6" x="49.02" width="9.81" height="9.81"/>
        <rect class="cls-6" x="39.22" y="107.85" width="9.8" height="9.8"/>
        <rect class="cls-6" x="39.22" y="88.24" width="9.8" height="9.8"/>
        <rect class="cls-2" x="39.22" y="78.43" width="9.8" height="9.81"/>
        <rect class="cls-2" x="39.22" y="68.63" width="9.8" height="9.8"/>
        <rect class="cls-4" x="39.22" y="58.83" width="9.8" height="9.8"/>
        <rect class="cls-2" x="39.22" y="49.02" width="9.8" height="9.81"/>
        <rect class="cls-2" x="39.22" y="39.22" width="9.8" height="9.8"/>
        <rect class="cls-2" x="39.22" y="29.42" width="9.8" height="9.8"/>
        <rect class="cls-2" x="39.22" y="19.61" width="9.8" height="9.81"/>
        <rect class="cls-2" x="39.22" y="9.81" width="9.8" height="9.8"/>
        <rect class="cls-2" x="39.22" width="9.8" height="9.81"/>
        <rect class="cls-6" x="29.41" y="98.04" width="9.81" height="9.81"/>
        <rect class="cls-6" x="29.41" y="88.24" width="9.81" height="9.8"/>
        <rect class="cls-2" x="29.41" y="78.43" width="9.81" height="9.81"/>
        <rect class="cls-2" x="29.41" y="68.63" width="9.81" height="9.8"/>
        <rect class="cls-4" x="29.41" y="58.83" width="9.81" height="9.8"/>
        <rect class="cls-2" x="29.41" y="49.02" width="9.81" height="9.81"/>
        <rect class="cls-2" x="29.41" y="39.22" width="9.81" height="9.8"/>
        <rect class="cls-2" x="29.41" y="29.42" width="9.81" height="9.8"/>
        <rect class="cls-5" x="29.41" y="19.61" width="9.81" height="9.81"/>
        <rect class="cls-5" x="29.41" y="9.81" width="9.81" height="9.8"/>
        <rect class="cls-5" x="29.41" width="9.81" height="9.81"/>
        <rect class="cls-6" x="19.61" y="78.43" width="9.8" height="9.81"/>
        <rect class="cls-2" x="19.61" y="68.63" width="9.8" height="9.8"/>
        <rect class="cls-3" x="19.61" y="58.83" width="9.8" height="9.8"/>
        <rect class="cls-4" x="19.61" y="49.02" width="9.8" height="9.81"/>
        <rect class="cls-2" x="19.61" y="39.22" width="9.8" height="9.8"/>
        <rect class="cls-5" x="19.61" y="29.42" width="9.8" height="9.8"/>
        <rect class="cls-5" x="19.61" y="19.61" width="9.8" height="9.81"/>
        <rect class="cls-1" x="19.61" y="9.81" width="9.8" height="9.8"/>
        <rect class="cls-1" x="19.61" width="9.8" height="9.81"/>
        <rect class="cls-6" x="9.81" y="68.63" width="9.8" height="9.8"/>
        <rect class="cls-2" x="9.81" y="58.83" width="9.8" height="9.8"/>
        <rect class="cls-2" x="9.81" y="49.02" width="9.8" height="9.81"/>
        <rect class="cls-2" x="9.81" y="39.22" width="9.8" height="9.8"/>
        <rect class="cls-5" x="9.81" y="29.42" width="9.8" height="9.8"/>
        <rect class="cls-1" x="9.81" y="19.61" width="9.8" height="9.81"/>
        <rect class="cls-1" x="0" y="58.83" width="9.81" height="9.8"/>
        <rect class="cls-1" x="0" y="49.02" width="9.81" height="9.81"/>
        <rect class="cls-1" x="0" y="39.22" width="9.81" height="9.8"/>
        <rect class="cls-1" x="0" y="29.42" width="9.81" height="9.8"/>
      </g>
    </g>
  </g>
</svg>