<?xml version="1.0" encoding="UTF-8"?>
<svg id="Layer_2" xmlns="http://www.w3.org/2000/svg" viewBox="0 0 78.43 117.65" shape-rendering="crispEdges">
  <defs>
    <style>
      .cls-1 {
        fill: #63170f;
      }

      .cls-2 {
        fill: #fecd79;
      }

      .cls-3 {
        fill: #f9f8f3;
      }

      .cls-4 {
        fill: #070e19;
      }

      .cls-5 {
        fill: #f5a62f;
      }

      .cls-6 {
        fill: #be2c1a;
      }
    </style>
  </defs>
  <g id="All_Assets">
    <g id="Snake_Assets">
      <g id="Head_Up">
        <rect class="cls-6" x="0" y="49.02" width="9.8" height="9.8"/>
        <rect class="cls-6" x="0" y="58.82" width="9.8" height="9.81"/>
        <rect class="cls-6" x="0" y="68.63" width="9.8" height="9.8"/>
        <rect class="cls-6" x="0" y="78.43" width="9.8" height="9.8"/>
        <rect class="cls-6" x="9.8" y="39.22" width="9.8" height="9.8"/>
        <rect class="cls-2" x="9.8" y="49.02" width="9.8" height="9.8"/>
        <rect class="cls-2" x="9.8" y="58.82" width="9.8" height="9.81"/>
        <rect class="cls-2" x="9.8" y="68.63" width="9.8" height="9.8"/>
        <rect class="cls-2" x="9.8" y="78.43" width="9.8" height="9.8"/>
        <rect class="cls-6" x="9.8" y="88.23" width="9.8" height="9.81"/>
        <rect class="cls-6" x="19.6" y="29.41" width="9.81" height="9.81"/>
        <rect class="cls-2" x="19.6" y="39.22" width="9.81" height="9.8"/>
        <rect class="cls-3" x="19.6" y="49.02" width="9.81" height="9.8"/>
        <rect class="cls-4" x="19.6" y="58.82" width="9.81" height="9.81"/>
        <rect class="cls-2" x="19.6" y="68.63" width="9.81" height="9.8"/>
        <rect class="cls-2" x="19.6" y="78.43" width="9.81" height="9.8"/>
        <rect class="cls-2" x="19.6" y="88.23" width="9.81" height="9.81"/>
        <rect class="cls-6" x="19.6" y="98.04" width="9.81" height="9.8"/>
        <rect class="cls-6" x="19.6" y="107.84" width="9.81" height="9.81"/>
        <rect class="cls-6" x="29.41" width="9.8" height="9.8"/>
        <rect class="cls-6" x="29.41" y="19.61" width="9.8" height="9.8"/>
        <rect class="cls-2" x="29.41" y="29.41" width="9.8" height="9.81"/>
        <rect class="cls-2" x="29.41" y="39.22" width="9.8" height="9.8"/>
        <rect class="cls-4" x="29.41" y="49.02" width="9.8" height="9.8"/>
        <rect class="cls-2" x="29.41" y="58.82" width="9.8" height="9.81"/>
        <rect class="cls-2" x="29.41" y="68.63" width="9.8" height="9.8"/>
        <rect class="cls-2" x="29.41" y="78.43" width="9.8" height="9.8"/>
        <rect class="cls-2" x="29.41" y="88.23" width="9.8" height="9.81"/>
        <rect class="cls-2" x="29.41" y="98.04" width="9.8" height="9.8"/>
        <rect class="cls-2" x="29.41" y="107.84" width="9.8" height="9.81"/>
        <rect class="cls-6" x="39.21" y="9.8" width="9.81" height="9.81"/>
        <rect class="cls-6" x="39.21" y="19.61" width="9.81" height="9.8"/>
        <rect class="cls-2" x="39.21" y="29.41" width="9.81" height="9.81"/>
        <rect class="cls-2" x="39.21" y="39.22" width="9.81" height="9.8"/>
        <rect class="cls-4" x="39.21" y="49.02" width="9.81" height="9.8"/>
        <rect class="cls-2" x="39.21" y="58.82" width="9.81" height="9.81"/>
        <rect class="cls-2" x="39.21" y="68.63" width="9.81" height="9.8"/>
        <rect class="cls-2" x="39.21" y="78.43" width="9.81" height="9.8"/>
        <rect class="cls-5" x="39.21" y="88.23" width="9.81" height="9.81"/>
        <rect class="cls-5" x="39.21" y="98.04" width="9.81" height="9.8"/>
        <rect class="cls-5" x="39.21" y="107.84" width="9.81" height="9.81"/>
        <rect class="cls-6" x="49.02" y="29.41" width="9.8" height="9.81"/>
        <rect class="cls-2" x="49.02" y="39.22" width="9.8" height="9.8"/>
        <rect class="cls-3" x="49.02" y="49.02" width="9.8" height="9.8"/>
        <rect class="cls-4" x="49.02" y="58.82" width="9.8" height="9.81"/>
        <rect class="cls-2" x="49.02" y="68.63" width="9.8" height="9.8"/>
        <rect class="cls-5" x="49.02" y="78.43" width="9.8" height="9.8"/>
        <rect class="cls-5" x="49.02" y="88.23" width="9.8" height="9.81"/>
        <rect class="cls-1" x="49.02" y="98.04" width="9.8" height="9.8"/>
        <rect class="cls-1" x="49.02" y="107.84" width="9.8" height="9.81"/>
        <rect class="cls-6" x="58.82" y="39.22" width="9.8" height="9.8"/>
        <rect class="cls-2" x="58.82" y="49.02" width="9.8" height="9.8"/>
        <rect class="cls-2" x="58.82" y="58.82" width="9.8" height="9.81"/>
        <rect class="cls-2" x="58.82" y="68.63" width="9.8" height="9.8"/>
        <rect class="cls-5" x="58.82" y="78.43" width="9.8" height="9.8"/>
        <rect class="cls-1" x="58.82" y="88.23" width="9.8" height="9.81"/>
        <rect class="cls-1" x="68.62" y="49.02" width="9.81" height="9.8"/>
        <rect class="cls-1" x="68.62" y="58.82" width="9.81" height="9.81"/>
        <rect class="cls-1" x="68.62" y="68.63" width="9.81" height="9.8"/>
        <rect class="cls-1" x="68.62" y="78.43" width="9.81" height="9.8"/>
      </g>
    </g>
  </g>
</svg>