<?xml version="1.0" encoding="UTF-8"?>
<svg id="Layer_2" xmlns="http://www.w3.org/2000/svg" viewBox="0 0 68.63 39.21" shape-rendering="crispEdges">
  <defs>
    <style>
      .cls-1 {
        fill: #63170f;
      }

      .cls-2 {
        fill: #fecd79;
      }

      .cls-3 {
        fill: #f5a62f;
      }

      .cls-4 {
        fill: #be2c1a;
      }
    </style>
  </defs>
  <g id="All_Assets">
    <g id="Snake_Assets">
      <g id="Tail_Right">
        <rect class="cls-1" x="58.83" y="29.41" width="9.8" height="9.8"/>
        <rect class="cls-3" x="58.83" y="19.6" width="9.8" height="9.81"/>
        <rect class="cls-2" x="58.83" y="9.8" width="9.8" height="9.8"/>
        <rect class="cls-4" x="58.83" width="9.8" height="9.8"/>
        <rect class="cls-1" x="49.02" y="29.41" width="9.81" height="9.8"/>
        <rect class="cls-3" x="49.02" y="19.6" width="9.81" height="9.81"/>
        <rect class="cls-2" x="49.02" y="9.8" width="9.81" height="9.8"/>
        <rect class="cls-1" x="49.02" width="9.81" height="9.8"/>
        <rect class="cls-1" x="39.22" y="29.41" width="9.8" height="9.8"/>
        <rect class="cls-2" x="39.22" y="19.6" width="9.8" height="9.81"/>
        <rect class="cls-1" x="39.22" y="9.8" width="9.8" height="9.8"/>
        <rect class="cls-1" x="29.42" y="29.41" width="9.8" height="9.8"/>
        <rect class="cls-1" x="29.42" y="19.6" width="9.8" height="9.81"/>
        <rect class="cls-1" x="29.42" y="9.8" width="9.8" height="9.8"/>
        <rect class="cls-1" x="19.61" y="29.41" width="9.81" height="9.8"/>
        <rect class="cls-1" x="19.61" y="19.6" width="9.81" height="9.81"/>
        <rect class="cls-1" x="9.81" y="29.41" width="9.8" height="9.8"/>
        <rect class="cls-1" y="29.41" width="9.81" height="9.8"/>
      </g>
    </g>
  </g>
</svg>